<svg width="12" height="12" viewBox="0 0 12 12" fill="none" xmlns="http://www.w3.org/2000/svg">
<mask id="mask0_88_2544" style="mask-type:alpha" maskUnits="userSpaceOnUse" x="0" y="0" width="12" height="12">
<rect width="12" height="12" transform="matrix(-1 0 0 1 12 0)" fill="#D9D9D9"/>
</mask>
<g mask="url(#mask0_88_2544)">
<path d="M7.40849 6.00013L3.64211 9.76651C3.54278 9.86584 3.49436 9.9828 3.49686 10.1174C3.49945 10.252 3.5504 10.369 3.64974 10.4684C3.74915 10.5677 3.86615 10.6174 4.00074 10.6174C4.13532 10.6174 4.25232 10.5677 4.35174 10.4684L8.18724 6.6405C8.27765 6.55009 8.34465 6.4488 8.38824 6.33663C8.43182 6.22446 8.45361 6.1123 8.45361 6.00013C8.45361 5.88796 8.43182 5.7758 8.38824 5.66363C8.34465 5.55146 8.27765 5.45017 8.18724 5.35975L4.35174 1.52413C4.25232 1.4248 4.13403 1.37642 3.99686 1.379C3.8597 1.38159 3.74145 1.43255 3.64211 1.53188C3.54278 1.63121 3.49311 1.74821 3.49311 1.88288C3.49311 2.01746 3.54278 2.13442 3.64211 2.23375L7.40849 6.00013Z" fill="#4E4E56"/>
</g>
</svg>
