<svg width="24" height="24" viewBox="0 0 24 24" fill="none" xmlns="http://www.w3.org/2000/svg">
<mask id="mask0_88_2979" style="mask-type:alpha" maskUnits="userSpaceOnUse" x="0" y="0" width="24" height="24">
<rect width="24" height="24" fill="#D9D9D9"/>
</mask>
<g mask="url(#mask0_88_2979)">
<path d="M9.4504 11.9997L16.2839 18.8331C16.4641 19.0134 16.5519 19.2256 16.5474 19.4697C16.5427 19.7141 16.4503 19.9263 16.27 20.1066C16.0897 20.2868 15.8774 20.3769 15.6332 20.3769C15.389 20.3769 15.1767 20.2868 14.9964 20.1066L8.03749 13.1615C7.87345 12.9975 7.75189 12.8137 7.67281 12.6102C7.59374 12.4067 7.5542 12.2032 7.5542 11.9997C7.5542 11.7962 7.59374 11.5927 7.67281 11.3891C7.75189 11.1856 7.87345 11.0019 8.03749 10.8378L14.9964 3.87872C15.1767 3.69849 15.3914 3.61073 15.6402 3.61541C15.8891 3.6201 16.1036 3.71255 16.2839 3.89278C16.4641 4.073 16.5542 4.28528 16.5542 4.52961C16.5542 4.77379 16.4641 4.98599 16.2839 5.16621L9.4504 11.9997Z" fill="#1B1B1B"/>
</g>
</svg>
