<svg width="20" height="20" viewBox="0 0 20 20" fill="none" xmlns="http://www.w3.org/2000/svg">
<mask id="mask0_208_666" style="mask-type:alpha" maskUnits="userSpaceOnUse" x="0" y="0" width="20" height="20">
<rect width="20" height="20" fill="#D9D9D9"/>
</mask>
<g mask="url(#mask0_208_666)">
<path d="M9.99995 18.8397L7.38286 16.2499H3.74995V12.617L1.16016 9.99995L3.74995 7.38286V3.74995H7.38286L9.99995 1.16016L12.617 3.74995H16.2499V7.38286L18.8397 9.99995L16.2499 12.617V16.2499H12.617L9.99995 18.8397ZM9.99995 17.0833L11.6427 15.4406V12.0127C11.3209 11.8267 11.0547 11.5136 10.8443 11.0735C10.634 10.6334 10.5289 10.1281 10.5289 9.55786C10.5289 8.8387 10.6902 8.22509 11.0127 7.71703C11.3352 7.20911 11.7321 6.95516 12.2035 6.95516C12.6603 6.95516 13.0522 7.20932 13.3793 7.71766C13.7065 8.22613 13.8702 8.84002 13.8702 9.55932C13.8702 10.1397 13.7641 10.6491 13.552 11.0874C13.3399 11.5259 13.0747 11.8343 12.7564 12.0127V14.9999H14.9999V12.0833L17.0833 9.99995L14.9999 7.91661V4.99995H12.0833L9.99995 2.91661L7.91661 4.99995H4.99995V7.91661L2.91661 9.99995L4.99995 12.0833V14.9999H7.24349V11.4183C6.91988 11.3402 6.65335 11.1681 6.44391 10.9018C6.23446 10.6357 6.12974 10.3293 6.12974 9.98245V6.95516H6.86995V9.76432H7.42495V6.95516H8.16495V9.76432H8.72474V6.95516H9.47099V9.98245C9.47099 10.3293 9.36502 10.6357 9.15307 10.9018C8.94099 11.1681 8.67571 11.3402 8.35724 11.4183V15.4406L9.99995 17.0833Z" fill="#3115B9"/>
</g>
</svg>
