<svg width="24" height="24" viewBox="0 0 24 24" fill="none" xmlns="http://www.w3.org/2000/svg">
<mask id="mask0_38_4385" style="mask-type:alpha" maskUnits="userSpaceOnUse" x="0" y="0" width="24" height="24">
<rect width="24" height="24" fill="#D9D9D9"/>
</mask>
<g mask="url(#mask0_38_4385)">
<path d="M9.526 10.6664C8.842 9.98255 8.5 9.15788 8.5 8.19238C8.5 7.22705 8.842 6.40238 9.526 5.71838C10.21 5.03438 11.0347 4.69238 12 4.69238C12.9653 4.69238 13.79 5.03438 14.474 5.71838C15.158 6.40238 15.5 7.22705 15.5 8.19238C15.5 9.15788 15.158 9.98255 14.474 10.6664C13.79 11.3504 12.9653 11.6924 12 11.6924C11.0347 11.6924 10.21 11.3504 9.526 10.6664ZM4.5 17.7886V17.0846C4.5 16.595 4.633 16.1415 4.899 15.7241C5.165 15.3068 5.5205 14.986 5.9655 14.7616C6.95383 14.2771 7.95092 13.9137 8.95675 13.6714C9.96258 13.429 10.977 13.3079 12 13.3079C13.023 13.3079 14.0374 13.429 15.0433 13.6714C16.0491 13.9137 17.0462 14.2771 18.0345 14.7616C18.4795 14.986 18.835 15.3068 19.101 15.7241C19.367 16.1415 19.5 16.595 19.5 17.0846V17.7886C19.5 18.2103 19.3523 18.569 19.0568 18.8646C18.7613 19.1601 18.4026 19.3079 17.9808 19.3079H6.01925C5.59742 19.3079 5.23875 19.1601 4.94325 18.8646C4.64775 18.569 4.5 18.2103 4.5 17.7886ZM6 17.8079H18V17.0846C18 16.8821 17.9413 16.6946 17.824 16.5221C17.7067 16.3498 17.5474 16.2091 17.3462 16.1001C16.4846 15.6758 15.6067 15.3543 14.7125 15.1356C13.8183 14.9171 12.9142 14.8079 12 14.8079C11.0858 14.8079 10.1817 14.9171 9.2875 15.1356C8.39333 15.3543 7.51542 15.6758 6.65375 16.1001C6.45258 16.2091 6.29333 16.3498 6.176 16.5221C6.05867 16.6946 6 16.8821 6 17.0846V17.8079ZM13.4125 9.60488C13.8042 9.21322 14 8.74238 14 8.19238C14 7.64238 13.8042 7.17155 13.4125 6.77988C13.0208 6.38822 12.55 6.19238 12 6.19238C11.45 6.19238 10.9792 6.38822 10.5875 6.77988C10.1958 7.17155 10 7.64238 10 8.19238C10 8.74238 10.1958 9.21322 10.5875 9.60488C10.9792 9.99655 11.45 10.1924 12 10.1924C12.55 10.1924 13.0208 9.99655 13.4125 9.60488Z" fill="#1B1B1B"/>
</g>
</svg>
