<svg width="24" height="24" viewBox="0 0 24 24" fill="none" xmlns="http://www.w3.org/2000/svg">
<mask id="mask0_38_1551" style="mask-type:alpha" maskUnits="userSpaceOnUse" x="0" y="0" width="24" height="24">
<rect width="24" height="24" fill="#D9D9D9"/>
</mask>
<g mask="url(#mask0_38_1551)">
<path d="M5.16176 7.58915C4.97426 7.58915 4.81713 7.5257 4.69037 7.39879C4.56346 7.27187 4.5 7.11467 4.5 6.92717C4.5 6.73952 4.56346 6.58239 4.69037 6.45577C4.81713 6.32901 4.97426 6.26562 5.16176 6.26562H18.8382C19.0257 6.26562 19.1829 6.32908 19.3096 6.45599C19.4365 6.5829 19.5 6.74011 19.5 6.92761C19.5 7.11526 19.4365 7.27239 19.3096 7.39901C19.1829 7.52577 19.0257 7.58915 18.8382 7.58915H5.16176ZM5.16176 17.7362C4.97426 17.7362 4.81713 17.6728 4.69037 17.5458C4.56346 17.4189 4.5 17.2617 4.5 17.0742C4.5 16.8866 4.56346 16.7294 4.69037 16.6028C4.81713 16.4761 4.97426 16.4127 5.16176 16.4127H18.8382C19.0257 16.4127 19.1829 16.4761 19.3096 16.6031C19.4365 16.73 19.5 16.8872 19.5 17.0747C19.5 17.2623 19.4365 17.4194 19.3096 17.5461C19.1829 17.6728 19.0257 17.7362 18.8382 17.7362H5.16176ZM5.16176 12.6627C4.97426 12.6627 4.81713 12.5992 4.69037 12.4723C4.56346 12.3454 4.5 12.1882 4.5 12.0007C4.5 11.8131 4.56346 11.6559 4.69037 11.5293C4.81713 11.4025 4.97426 11.3392 5.16176 11.3392H18.8382C19.0257 11.3392 19.1829 11.4026 19.3096 11.5295C19.4365 11.6564 19.5 11.8136 19.5 12.0011C19.5 12.1888 19.4365 12.3459 19.3096 12.4725C19.1829 12.5993 19.0257 12.6627 18.8382 12.6627H5.16176Z" fill="#3617CE"/>
</g>
</svg>
