<svg width="24" height="24" viewBox="0 0 24 24" fill="none" xmlns="http://www.w3.org/2000/svg">
<mask id="mask0_38_4380" style="mask-type:alpha" maskUnits="userSpaceOnUse" x="0" y="0" width="24" height="24">
<rect width="24" height="24" fill="#D9D9D9"/>
</mask>
<g mask="url(#mask0_38_4380)">
<path d="M6.91387 19.2101C6.64195 18.9382 6.50599 18.6081 6.50599 18.2199C6.50599 17.8316 6.64195 17.5015 6.91387 17.2296C7.1858 16.9577 7.51585 16.8217 7.90403 16.8217C8.29234 16.8217 8.62245 16.9577 8.89438 17.2296C9.1663 17.5015 9.30226 17.8316 9.30226 18.2199C9.30226 18.6081 9.1663 18.9382 8.89438 19.2101C8.62245 19.4821 8.29234 19.6182 7.90403 19.6182C7.51585 19.6182 7.1858 19.4821 6.91387 19.2101ZM14.6579 19.2101C14.386 18.9382 14.25 18.6081 14.25 18.2199C14.25 17.8316 14.386 17.5015 14.6579 17.2296C14.9298 16.9577 15.26 16.8217 15.6483 16.8217C16.0364 16.8217 16.3665 16.9577 16.6384 17.2296C16.9103 17.5015 17.0463 17.8316 17.0463 18.2199C17.0463 18.6081 16.9103 18.9382 16.6384 19.2101C16.3665 19.4821 16.0364 19.6182 15.6483 19.6182C15.26 19.6182 14.9298 19.4821 14.6579 19.2101ZM6.99437 6.98788L9.01962 11.2287H14.4666C14.5126 11.2287 14.5536 11.2172 14.5896 11.1942C14.6254 11.1711 14.6561 11.1391 14.6817 11.0981L16.8252 7.20301C16.8559 7.14668 16.8585 7.09675 16.8328 7.0532C16.8072 7.00966 16.7637 6.98788 16.7021 6.98788H6.99437ZM6.4199 5.78939H17.5135C17.8403 5.78939 18.0874 5.92848 18.2548 6.20667C18.4223 6.48472 18.4303 6.76869 18.2788 7.05859L15.7188 11.6957C15.5877 11.9263 15.4144 12.1058 15.1988 12.2343C14.9831 12.3629 14.7467 12.4272 14.4897 12.4272H8.66007L7.73504 14.1173C7.69402 14.1788 7.69276 14.2454 7.73124 14.317C7.7696 14.3888 7.82719 14.4247 7.90403 14.4247H16.4473C16.6172 14.4247 16.7595 14.482 16.8743 14.5967C16.989 14.7115 17.0463 14.8539 17.0463 15.024C17.0463 15.194 16.989 15.3364 16.8743 15.451C16.7595 15.5658 16.6172 15.6232 16.4473 15.6232H7.90403C7.37136 15.6232 6.97114 15.3935 6.70334 14.9341C6.43541 14.4746 6.42596 14.016 6.67498 13.558L7.81494 11.5084L4.908 5.3899H3.98596C3.81591 5.3899 3.67356 5.3325 3.5589 5.21771C3.44411 5.10306 3.38672 4.9607 3.38672 4.79065C3.38672 4.6206 3.44411 4.47824 3.5589 4.36359C3.67356 4.2488 3.81591 4.19141 3.98596 4.19141H5.20742C5.34379 4.19141 5.47083 4.22749 5.58854 4.29967C5.7064 4.37198 5.79602 4.47365 5.85741 4.60469L6.4199 5.78939Z" fill="#1B1B1B"/>
</g>
</svg>
