<svg width="24" height="24" viewBox="0 0 24 24" fill="none" xmlns="http://www.w3.org/2000/svg">
<mask id="mask0_38_1627" style="mask-type:alpha" maskUnits="userSpaceOnUse" x="0" y="0" width="24" height="24">
<rect width="24" height="24" fill="#D9D9D9"/>
</mask>
<g mask="url(#mask0_38_1627)">
<path d="M6.91387 19.2091C6.64195 18.9372 6.50599 18.6071 6.50599 18.219C6.50599 17.8306 6.64195 17.5005 6.91387 17.2286C7.1858 16.9567 7.51585 16.8207 7.90403 16.8207C8.29234 16.8207 8.62245 16.9567 8.89438 17.2286C9.1663 17.5005 9.30226 17.8306 9.30226 18.219C9.30226 18.6071 9.1663 18.9372 8.89438 19.2091C8.62245 19.4812 8.29234 19.6172 7.90403 19.6172C7.51585 19.6172 7.1858 19.4812 6.91387 19.2091ZM14.6579 19.2091C14.386 18.9372 14.25 18.6071 14.25 18.219C14.25 17.8306 14.386 17.5005 14.6579 17.2286C14.9298 16.9567 15.26 16.8207 15.6483 16.8207C16.0364 16.8207 16.3665 16.9567 16.6384 17.2286C16.9103 17.5005 17.0463 17.8306 17.0463 18.219C17.0463 18.6071 16.9103 18.9372 16.6384 19.2091C16.3665 19.4812 16.0364 19.6172 15.6483 19.6172C15.26 19.6172 14.9298 19.4812 14.6579 19.2091ZM6.4199 5.78842H17.5135C17.8403 5.78842 18.0874 5.92751 18.2548 6.20569C18.4223 6.48374 18.4303 6.76771 18.2788 7.05762L15.7188 11.6948C15.5877 11.9253 15.4144 12.1048 15.1988 12.2333C14.9831 12.3619 14.7467 12.4263 14.4897 12.4263H8.66007L7.73504 14.1163C7.69402 14.1778 7.69276 14.2444 7.73124 14.3161C7.7696 14.3878 7.82719 14.4237 7.90403 14.4237H16.4473C16.6172 14.4237 16.7595 14.4811 16.8743 14.5957C16.989 14.7105 17.0463 14.8529 17.0463 15.023C17.0463 15.193 16.989 15.3354 16.8743 15.45C16.7595 15.5648 16.6172 15.6222 16.4473 15.6222H7.90403C7.37136 15.6222 6.97114 15.3925 6.70334 14.9331C6.43541 14.4737 6.42596 14.015 6.67498 13.557L7.81494 11.5074L4.908 5.38892H3.98596C3.81591 5.38892 3.67356 5.33153 3.5589 5.21674C3.44411 5.10208 3.38672 4.95973 3.38672 4.78967C3.38672 4.61962 3.44411 4.47727 3.5589 4.36261C3.67356 4.24782 3.81591 4.19043 3.98596 4.19043H5.20742C5.34379 4.19043 5.47083 4.22652 5.58854 4.29869C5.7064 4.371 5.79602 4.47267 5.85741 4.60371L6.4199 5.78842Z" fill="#3617CE"/>
</g>
</svg>
