<svg width="24" height="24" viewBox="0 0 24 24" fill="none" xmlns="http://www.w3.org/2000/svg">
<mask id="mask0_38_4375" style="mask-type:alpha" maskUnits="userSpaceOnUse" x="0" y="0" width="24" height="24">
<rect width="24" height="24" fill="#D9D9D9"/>
</mask>
<g mask="url(#mask0_38_4375)">
<path d="M11.4831 17.8759C11.3126 17.8151 11.1625 17.7199 11.0329 17.5905L9.89882 16.5596C8.49908 15.2833 7.24934 14.0295 6.14961 12.7982C5.04987 11.5668 4.5 10.2478 4.5 8.84092C4.5 7.72053 4.87776 6.7825 5.63329 6.02684C6.38895 5.27132 7.32697 4.89355 8.44737 4.89355C9.08395 4.89355 9.71276 5.04033 10.3338 5.33388C10.9547 5.62744 11.5101 6.10415 12 6.76402C12.4899 6.10415 13.0453 5.62744 13.6662 5.33388C14.2872 5.04033 14.9161 4.89355 15.5526 4.89355C16.673 4.89355 17.6111 5.27132 18.3667 6.02684C19.1222 6.7825 19.5 7.72053 19.5 8.84092C19.5 10.263 18.9408 11.5968 17.8224 12.8422C16.7039 14.0876 15.457 15.3307 14.0814 16.5716L12.9594 17.5905C12.8299 17.7199 12.6787 17.8151 12.5057 17.8759C12.3325 17.9365 12.1614 17.9668 11.9925 17.9668C11.8234 17.9668 11.6536 17.9365 11.4831 17.8759ZM11.4322 7.96342C11.0051 7.31263 10.5554 6.83566 10.0832 6.5325C9.61105 6.22934 9.06579 6.07777 8.44737 6.07777C7.65789 6.07777 7 6.34092 6.47368 6.86724C5.94737 7.39355 5.68421 8.05145 5.68421 8.84092C5.68421 9.47447 5.88842 10.1369 6.29684 10.8282C6.70526 11.5195 7.21789 12.2068 7.83474 12.8899C8.45158 13.5732 9.11987 14.2407 9.83961 14.8924C10.5592 15.5443 11.2262 16.1501 11.8405 16.7098C11.8861 16.7503 11.9392 16.7706 12 16.7706C12.0608 16.7706 12.1139 16.7503 12.1595 16.7098C12.7738 16.1501 13.4408 15.5443 14.1604 14.8924C14.8801 14.2407 15.5484 13.5732 16.1653 12.8899C16.7821 12.2068 17.2947 11.5195 17.7032 10.8282C18.1116 10.1369 18.3158 9.47447 18.3158 8.84092C18.3158 8.05145 18.0526 7.39355 17.5263 6.86724C17 6.34092 16.3421 6.07777 15.5526 6.07777C14.9342 6.07777 14.3889 6.22934 13.9168 6.5325C13.4446 6.83566 12.9949 7.31263 12.5678 7.96342C12.501 8.06461 12.417 8.14053 12.3158 8.19119C12.2146 8.24171 12.1093 8.26697 12 8.26697C11.8907 8.26697 11.7854 8.24171 11.6842 8.19119C11.583 8.14053 11.499 8.06461 11.4322 7.96342Z" fill="#1B1B1B"/>
</g>
</svg>
