<svg width="24" height="24" viewBox="0 0 24 24" fill="none" xmlns="http://www.w3.org/2000/svg">
<mask id="mask0_38_1583" style="mask-type:alpha" maskUnits="userSpaceOnUse" x="0" y="0" width="24" height="24">
<rect width="24" height="24" fill="#D9D9D9"/>
</mask>
<g mask="url(#mask0_38_1583)">
<path d="M11.4831 17.8759C11.3126 17.8151 11.1625 17.7199 11.0329 17.5905L9.89882 16.5596C8.49908 15.2833 7.24934 14.0295 6.14961 12.7982C5.04987 11.5668 4.5 10.2478 4.5 8.84092C4.5 7.72053 4.87776 6.7825 5.63329 6.02684C6.38895 5.27132 7.32697 4.89355 8.44737 4.89355C9.08395 4.89355 9.71276 5.04033 10.3338 5.33388C10.9547 5.62744 11.5101 6.10415 12 6.76402C12.4899 6.10415 13.0453 5.62744 13.6662 5.33388C14.2872 5.04033 14.9161 4.89355 15.5526 4.89355C16.673 4.89355 17.6111 5.27132 18.3667 6.02684C19.1222 6.7825 19.5 7.72053 19.5 8.84092C19.5 10.263 18.9408 11.5968 17.8224 12.8422C16.7039 14.0876 15.457 15.3307 14.0814 16.5716L12.9594 17.5905C12.8299 17.7199 12.6787 17.8151 12.5057 17.8759C12.3325 17.9365 12.1614 17.9668 11.9925 17.9668C11.8234 17.9668 11.6536 17.9365 11.4831 17.8759Z" fill="#3617CE"/>
</g>
</svg>
