<svg width="12" height="12" viewBox="0 0 12 12" fill="none" xmlns="http://www.w3.org/2000/svg">
<mask id="mask0_88_2826" style="mask-type:alpha" maskUnits="userSpaceOnUse" x="0" y="0" width="12" height="12">
<rect width="12" height="12" fill="#D9D9D9"/>
</mask>
<g mask="url(#mask0_88_2826)">
<path d="M6.00147 6.52615L3.46497 9.06277C3.39572 9.13194 3.30868 9.16736 3.20385 9.16902C3.0991 9.17061 3.01047 9.13519 2.93797 9.06277C2.86555 8.99027 2.82935 8.90244 2.82935 8.79927C2.82935 8.69611 2.86555 8.60827 2.93797 8.53577L5.4746 5.99927L2.93797 3.46277C2.8688 3.39352 2.83339 3.30648 2.83172 3.20165C2.83014 3.0969 2.86555 3.00827 2.93797 2.93577C3.01047 2.86336 3.0983 2.82715 3.20147 2.82715C3.30464 2.82715 3.39247 2.86336 3.46497 2.93577L6.00147 5.4724L8.53797 2.93577C8.60722 2.86661 8.69426 2.83119 8.7991 2.82952C8.90385 2.82794 8.99247 2.86336 9.06497 2.93577C9.13739 3.00827 9.1736 3.09611 9.1736 3.19927C9.1736 3.30244 9.13739 3.39027 9.06497 3.46277L6.52835 5.99927L9.06497 8.53577C9.13414 8.60502 9.16955 8.69207 9.17122 8.7969C9.1728 8.90165 9.13739 8.99027 9.06497 9.06277C8.99247 9.13519 8.90464 9.1714 8.80147 9.1714C8.6983 9.1714 8.61047 9.13519 8.53797 9.06277L6.00147 6.52615Z" fill="#4E4E56"/>
</g>
</svg>
