<svg width="20" height="20" viewBox="0 0 20 20" fill="none" xmlns="http://www.w3.org/2000/svg">
<mask id="mask0_59_13" style="mask-type:alpha" maskUnits="userSpaceOnUse" x="0" y="0" width="20" height="20">
<rect width="20" height="20" fill="#D9D9D9"/>
</mask>
<g mask="url(#mask0_59_13)">
<path d="M16.2845 17.1472L11.0505 11.913C10.6339 12.257 10.1547 12.5263 9.61302 12.7207C9.07135 12.9152 8.51101 13.0124 7.93198 13.0124C6.50892 13.0124 5.30378 12.5189 4.31656 11.5318C3.32948 10.5445 2.83594 9.33941 2.83594 7.91635C2.83594 6.4933 3.32948 5.28816 4.31656 4.30094C5.30378 3.31385 6.50892 2.82031 7.93198 2.82031C9.35503 2.82031 10.5602 3.31385 11.5474 4.30094C12.5345 5.28816 13.028 6.4933 13.028 7.91635C13.028 8.51149 12.9282 9.0799 12.7284 9.62156C12.5286 10.1632 12.262 10.6343 11.9286 11.0349L17.1626 16.2689L16.2845 17.1472ZM7.93198 11.7626C9.00573 11.7626 9.91517 11.39 10.6603 10.6447C11.4056 9.89955 11.7782 8.9901 11.7782 7.91635C11.7782 6.8426 11.4056 5.93316 10.6603 5.18802C9.91517 4.44274 9.00573 4.0701 7.93198 4.0701C6.85823 4.0701 5.94878 4.44274 5.20365 5.18802C4.45837 5.93316 4.08573 6.8426 4.08573 7.91635C4.08573 8.9901 4.45837 9.89955 5.20365 10.6447C5.94878 11.39 6.85823 11.7626 7.93198 11.7626Z" fill="#1B1B1B"/>
</g>
</svg>
