<svg width="15" height="15" viewBox="0 0 15 15" fill="none" xmlns="http://www.w3.org/2000/svg">
<mask id="mask0_88_2676" style="mask-type:alpha" maskUnits="userSpaceOnUse" x="0" y="0" width="15" height="15">
<rect width="15" height="15" fill="#D9D9D9"/>
</mask>
<g mask="url(#mask0_88_2676)">
<path d="M7.49904 10.43L5.06764 11.8962C4.97701 11.9492 4.88623 11.9714 4.79529 11.963C4.70436 11.9545 4.62207 11.9239 4.54842 11.8711C4.47467 11.8182 4.41774 11.7491 4.37764 11.6637C4.33764 11.5784 4.33123 11.4841 4.35842 11.3806L5.00389 8.61984L2.85733 6.76172C2.77712 6.69203 2.72602 6.6113 2.70404 6.51953C2.68196 6.42776 2.68774 6.33859 2.72139 6.25203C2.75503 6.16557 2.80352 6.0949 2.86686 6.04C2.93019 5.9851 3.01675 5.94922 3.12654 5.93234L5.95936 5.68484L7.0592 3.07781C7.0992 2.98083 7.15988 2.90911 7.24123 2.86266C7.32259 2.8162 7.40852 2.79297 7.49904 2.79297C7.58957 2.79297 7.6755 2.8162 7.75686 2.86266C7.83821 2.90911 7.89889 2.98083 7.93889 3.07781L9.03873 5.68484L11.8715 5.93234C11.9813 5.94922 12.0679 5.9851 12.1312 6.04C12.1946 6.0949 12.2431 6.16557 12.2767 6.25203C12.3103 6.33859 12.3161 6.42776 12.294 6.51953C12.2721 6.6113 12.221 6.69203 12.1408 6.76172L9.9942 8.61984L10.6397 11.3806C10.6669 11.4841 10.6605 11.5784 10.6205 11.6637C10.5803 11.7491 10.5234 11.8182 10.4497 11.8711C10.376 11.9239 10.2937 11.9545 10.2028 11.963C10.1119 11.9714 10.0211 11.9492 9.93045 11.8962L7.49904 10.43Z" fill="#767781"/>
</g>
</svg>
